:FULLY-SPECIFIED
:FORCE-ALL-JOINTS-BE-3DOF
:DEGREES
2752
root -5.55839 13.9726 -28.4056 1242.08 -65.4425 -161.206
lfemur -59.6041 43.0197 -6.61282
ltibia 67.8773 0 0
lfoot -2.45528 -1.51725 0
ltoes -31.7179 0 0
rfemur -30.8501 -18.7194 21.5832
rtibia 81.8675 0 0
rfoot -35.1645 -24.7906 0
rtoes -14.175 0 0
lowerback 15.6867 5.80508 0.471037
upperback -4.02035 8.08257 1.44673
thorax -13.4426 3.78883 -0.839516
lowerneck -2.47276 9.60963 2.03665
upperneck 7.65975 12.5628 2.00944
head 2.86518 6.34214 0.708967
lclavicle 1.01653e-13 -2.50674e-15 0
lhumerus 3.62851 10.5613 84.0392
lradius 94.6627 0 0
lwrist -18.9166 0 0
lhand -39.733 388.068 0
lfingers 7.12502 0 0
lthumb -12.7103 -662.339 0
rclavicle 1.01653e-13 -2.50674e-15 0
rhumerus -57.8648 50.9787 -110.249
rradius 114.043 0 0
rwrist -84.7499 0 0
rhand 4.73944 -386.773 0
rfingers 7.12502 0 0
rthumb 30.1215 305.661 0
2753
root -5.56798 13.9619 -28.413 1242.1 -65.4605 -161.224
lfemur -59.6516 43.0609 -6.63327
ltibia 67.9487 0 0
lfoot -2.48414 -1.56849 0
ltoes -31.7177 0 0
rfemur -30.8456 -18.7371 21.5677
rtibia 81.922 0 0
rfoot -35.2203 -24.8101 0
rtoes -14.1712 0 0
lowerback 15.6703 5.80451 0.458288
upperback -4.02717 8.07889 1.44408
thorax -13.4422 3.78821 -0.833147
lowerneck -2.47323 9.6079 2.03968
upperneck 7.67298 12.5601 2.00863
head 2.87005 6.34084 0.708744
lclavicle 1.03962e-13 -2.095e-15 0
lhumerus 3.62814 10.5721 84.0419
lradius 94.6512 0 0
lwrist -18.9354 0 0
lhand -39.7316 388.063 0
lfingers 7.12502 0 0
lthumb -12.709 -662.344 0
rclavicle 1.03962e-13 -2.095e-15 0
rhumerus -57.8745 50.9638 -110.257
rradius 114.042 0 0
rwrist -84.7406 0 0
rhand 4.76364 -386.762 0
rfingers 7.12502 0 0
rthumb 30.1445 305.677 0
2754
root -5.57756 13.9513 -28.4204 1242.11 -65.4687 -161.236
lfemur -59.6762 43.0827 -6.64244
ltibia 67.9889 0 0
lfoot -2.50053 -1.59355 0
ltoes -31.7205 0 0
rfemur -30.8435 -18.7453 21.5591
rtibia 81.9529 0 0
rfoot -35.2509 -24.8211 0
rtoes -14.169 0 0
lowerback 15.6615 5.80472 0.451537
upperback -4.03111 8.07765 1.44284
thorax -13.4423 3.78822 -0.829794
lowerneck -2.47354 9.60703 2.04134
upperneck 7.67986 12.5587 2.00814
head 2.8726 6.34019 0.708599
lclavicle 1.04547e-13 -1.8999e-15 0
lhumerus 3.62657 10.5777 84.0422
lradius 94.6474 0 0
lwrist -18.9449 0 0
lhand -39.7306 388.059 0
lfingers 7.12502 0 0
lthumb -12.708 -662.348 0
rclavicle 1.04547e-13 -1.8999e-15 0
rhumerus -57.8799 50.9569 -110.262
rradius 114.042 0 0
rwrist -84.7353 0 0
rhand 4.77672 -386.756 0
rfingers 7.12502 0 0
rthumb 30.157 305.685 0
2755
root -5.58714 13.9407 -28.4278 1242.12 -65.4689 -161.243
lfemur -59.6839 43.0905 -6.64242
ltibia 68.008 0 0
lfoot -2.50852 -1.59835 0
ltoes -31.7272 0 0
rfemur -30.8432 -18.7459 21.5554
rtibia 81.9677 0 0
rfoot -35.2641 -24.8263 0
rtoes -14.1679 0 0
lowerback 15.6583 5.8058 0.449142
upperback -4.03313 8.07864 1.44275
thorax -13.4431 3.78888 -0.828642
lowerneck -2.47378 9.60681 2.04204
upperneck 7.68206 12.5584 2.00784
head 2.87347 6.34003 0.708495
lclavicle 1.03493e-13 -1.87603e-15 0
lhumerus 3.62329 10.5794 84.04
lradius 94.6505 0 0
lwrist -18.947 0 0
lhand -39.7296 388.054 0
lfingers 7.12502 0 0
lthumb -12.7071 -662.353 0
rclavicle 1.03493e-13 -1.87603e-15 0
rhumerus -57.8824 50.9561 -110.265
rradius 114.042 0 0
rwrist -84.7326 0 0
rhand 4.78191 -386.756 0
rfingers 7.12502 0 0
rthumb 30.162 305.686 0
2756
root -5.59673 13.9301 -28.4352 1242.13 -65.4631 -161.249
lfemur -59.6806 43.0896 -6.63529
ltibia 68.0158 0 0
lfoot -2.51219 -1.58879 0
ltoes -31.7387 0 0
rfemur -30.8442 -18.7407 21.5543
rtibia 81.9743 0 0
rfoot -35.2674 -24.8284 0
rtoes -14.1674 0 0
lowerback 15.6584 5.80784 0.449459
upperback -4.03422 8.08161 1.44351
thorax -13.4445 3.79023 -0.828877
lowerneck -2.47401 9.60705 2.0422
upperneck 7.68124 12.5587 2.00762
head 2.87326 6.34021 0.708394
lclavicle 1.00884e-13 -1.97794e-15 0
lhumerus 3.61779 10.5787 84.0353
lradius 94.6599 0 0
lwrist -18.9442 0 0
lhand -39.7283 388.047 0
lfingers 7.12502 0 0
lthumb -12.7059 -662.36 0
rclavicle 1.00884e-13 -1.97794e-15 0
rhumerus -57.8833 50.96 -110.265
rradius 114.042 0 0
rwrist -84.7312 0 0
rhand 4.7824 -386.761 0
rfingers 7.12502 0 0
rthumb 30.1624 305.681 0
2757
root -5.60631 13.9195 -28.4426 1242.13 -65.4531 -161.258
lfemur -59.6723 43.0853 -6.62314
ltibia 68.0224 0 0
lfoot -2.51565 -1.5708 0
ltoes -31.7559 0 0
rfemur -30.8461 -18.7316 21.5538
rtibia 81.9802 0 0
rfoot -35.2684 -24.8302 0
rtoes -14.1668 0 0
lowerback 15.6598 5.81094 0.450846
upperback -4.03538 8.08633 1.44485
thorax -13.4468 3.79229 -0.829685
lowerneck -2.47433 9.60753 2.04222
upperneck 7.67906 12.5595 2.00734
head 2.87261 6.34058 0.708259
lclavicle 9.68075e-14 -2.16023e-15 0
lhumerus 3.60956 10.5769 84.0281
lradius 94.6746 0 0
lwrist -18.9386 0 0
lhand -39.7266 388.037 0
lfingers 7.12502 0 0
lthumb -12.7042 -662.369 0
rclavicle 9.68075e-14 -2.16023e-15 0
rhumerus -57.884 50.9668 -110.266
rradius 114.043 0 0
rwrist -84.7298 0 0
rhand 4.78141 -386.768 0
rfingers 7.12502 0 0
rthumb 30.1615 305.674 0
2758
root -5.61589 13.9088 -28.45 1242.14 -65.4408 -161.271
lfemur -59.6649 43.0829 -6.60805
ltibia 68.0378 0 0
lfoot -2.52296 -1.55028 0
ltoes -31.7798 0 0
rfemur -30.8483 -18.7206 21.5517
rtibia 81.9931 0 0
rfoot -35.2746 -24.8344 0
rtoes -14.1658 0 0
lowerback 15.6604 5.8152 0.45166
upperback -4.03758 8.09256 1.44646
thorax -13.4498 3.7951 -0.83025
lowerneck -2.47482 9.60804 2.0425
upperneck 7.67718 12.5602 2.00689
head 2.87213 6.34097 0.708051
lclavicle 9.13466e-14 -2.37745e-15 0
lhumerus 3.5981 10.5753 84.0183
lradius 94.6942 0 0
lwrist -18.9325 0 0
lhand -39.724 388.023 0
lfingers 7.12502 0 0
lthumb -12.7017 -662.383 0
rclavicle 9.13466e-14 -2.37745e-15 0
rhumerus -57.8858 50.975 -110.268
rradius 114.045 0 0
rwrist -84.727 0 0
rhand 4.78215 -386.778 0
rfingers 7.12502 0 0
rthumb 30.1622 305.665 0
2759
root -5.62548 13.8982 -28.4574 1242.16 -65.4281 -161.292
lfemur -59.6644 43.0878 -6.59211
ltibia 68.0721 0 0
lfoot -2.53823 -1.53315 0
ltoes -31.8114 0 0
rfemur -30.8503 -18.7095 21.546
rtibia 82.0209 0 0
rfoot -35.2936 -24.8437 0
rtoes -14.1636 0 0
lowerback 15.6578 5.82071 0.450256
upperback -4.04181 8.10007 1.44809
thorax -13.4537 3.79869 -0.829759
lowerneck -2.47555 9.60839 2.04347
upperneck 7.67728 12.5607 2.00613
head 2.87244 6.34123 0.707735
lclavicle 8.45867e-14 -2.5842e-15 0
lhumerus 3.5829 10.5753 84.0059
lradius 94.7178 0 0
lwrist -18.928 0 0
lhand -39.7204 388.004 0
lfingers 7.12502 0 0
lthumb -12.6982 -662.402 0
rclavicle 8.45867e-14 -2.5842e-15 0
rhumerus -57.8901 50.983 -110.271
rradius 114.046 0 0
rwrist -84.7215 0 0
rhand 4.78783 -386.788 0
rfingers 7.12502 0 0
rthumb 30.1676 305.656 0
2760
root -5.63506 13.8876 -28.4648 1242.18 -65.4167 -161.323
lfemur -59.6766 43.1052 -6.57739
ltibia 68.1352 0 0
lfoot -2.56553 -1.52532 0
ltoes -31.8515 0 0
rfemur -30.8517 -18.7001 21.5345
rtibia 82.071 0 0
rfoot -35.3329 -24.8608 0
rtoes -14.1598 0 0
lowerback 15.6502 5.82757 0.444993
upperback -4.04906 8.10861 1.44942
thorax -13.4586 3.80309 -0.827398
lowerneck -2.47661 9.60835 2.04553
upperneck 7.68102 12.5606 2.00495
head 2.87416 6.34122 0.70727
lclavicle 7.6613e-14 -2.73503e-15 0
lhumerus 3.56346 10.5782 83.9908
lradius 94.7447 0 0
lwrist -18.9276 0 0
lhand -39.7153 387.978 0
lfingers 7.12502 0 0
lthumb -12.6934 -662.428 0
rclavicle 7.6613e-14 -2.73503e-15 0
rhumerus -57.8982 50.9891 -110.279
rradius 114.048 0 0
rwrist -84.712 0 0
rhand 4.80165 -386.797 0
rfingers 7.12502 0 0
rthumb 30.1808 305.649 0
2761
root -5.64464 13.8769 -28.4722 1242.22 -65.4087 -161.368
lfemur -59.7076 43.1405 -6.56598
ltibia 68.2371 0 0
lfoot -2.60895 -1.53271 0
ltoes -31.9011 0 0
rfemur -30.8519 -18.6945 21.5151
rtibia 82.1513 0 0
rfoot -35.4003 -24.8886 0
rtoes -14.1539 0 0
lowerback 15.6352 5.83588 0.434226
upperback -4.06031 8.11797 1.45019
thorax -13.4644 3.80834 -0.822351
lowerneck -2.47809 9.60772 2.04909
upperneck 7.69005 12.5595 2.00321
head 2.87791 6.34076 0.706621
lclavicle 6.75104e-14 -2.78453e-15 0
lhumerus 3.53927 10.5854 83.9731
lradius 94.7742 0 0
lwrist -18.9333 0 0
lhand -39.7087 387.944 0
lfingers 7.12502 0 0
lthumb -12.6869 -662.461 0
rclavicle 6.75104e-14 -2.78453e-15 0
rhumerus -57.9114 50.9917 -110.29
rradius 114.05 0 0
rwrist -84.6971 0 0
rhand 4.82683 -386.805 0
rfingers 7.12502 0 0
rthumb 30.2048 305.646 0
